<svg width="39" height="37" viewBox="0 0 39 37" fill="none" xmlns="http://www.w3.org/2000/svg">
<path d="M11.4444 8.63159H8.22222C7.36764 8.63159 6.54805 8.90885 5.94377 9.40236C5.33948 9.89588 5 10.5652 5 11.2632V27.0526C5 27.7506 5.33948 28.4199 5.94377 28.9135C6.54805 29.407 7.36764 29.6842 8.22222 29.6842H17.4007M27.5556 20.4737V25.7369H34M27.5556 16.5263V11.2632C27.5556 10.5652 27.2161 9.89588 26.6118 9.40236C26.0075 8.90885 25.1879 8.63159 24.3333 8.63159H21.1111" stroke="black" stroke-width="2" stroke-linecap="round" stroke-linejoin="round"/>
<path d="M11.4445 16.5263H17.8889M11.4445 21.7895H16.2778M11.4445 8.63158C11.4445 7.93364 11.7839 7.26429 12.3882 6.77077C12.9925 6.27725 13.8121 6 14.6667 6H17.8889C18.7435 6 19.5631 6.27725 20.1674 6.77077C20.7716 7.26429 21.1111 7.93364 21.1111 8.63158C21.1111 9.32952 20.7716 9.99887 20.1674 10.4924C19.5631 10.9859 18.7435 11.2632 17.8889 11.2632H14.6667C13.8121 11.2632 12.9925 10.9859 12.3882 10.4924C11.7839 9.99887 11.4445 9.32952 11.4445 8.63158ZM21.1111 25.7368C21.1111 27.1327 21.7901 28.4714 22.9987 29.4585C24.2072 30.4455 25.8464 31 27.5556 31C29.2647 31 30.9039 30.4455 32.1125 29.4585C33.321 28.4714 34 27.1327 34 25.7368C34 24.341 33.321 23.0023 32.1125 22.0152C30.9039 21.0282 29.2647 20.4737 27.5556 20.4737C25.8464 20.4737 24.2072 21.0282 22.9987 22.0152C21.7901 23.0023 21.1111 24.341 21.1111 25.7368Z" stroke="black" stroke-width="2" stroke-linecap="round" stroke-linejoin="round"/>
</svg>
