<svg width="39" height="37" viewBox="0 0 39 37" fill="none" xmlns="http://www.w3.org/2000/svg">
<path d="M29 7H26V6C26 5.46957 25.7893 4.96086 25.4142 4.58579C25.0391 4.21071 24.5304 4 24 4H16C15.4696 4 14.9609 4.21071 14.5858 4.58579C14.2107 4.96086 14 5.46957 14 6V7H11C10.4696 7 9.96086 7.21071 9.58579 7.58579C9.21071 7.96086 9 8.46957 9 9V30C9 30.5304 9.21071 31.0391 9.58579 31.4142C9.96086 31.7893 10.4696 32 11 32H29C29.5304 32 30.0391 31.7893 30.4142 31.4142C30.7893 31.0391 31 30.5304 31 30V9C31 8.46957 30.7893 7.96086 30.4142 7.58579C30.0391 7.21071 29.5304 7 29 7ZM16 6H24V10H16V6ZM29 30H11V9H14V12H26V9H29V30Z" fill="black"/>
<path d="M14 20H22V22H14V20ZM14 15H26V17H14V15ZM14 25H19V27H14V25Z" fill="black"/>
</svg>
