<svg width="40" height="37" viewBox="0 0 40 37" fill="none" xmlns="http://www.w3.org/2000/svg">
<g clip-path="url(#clip0_2001_1451)">
<mask id="mask0_2001_1451" style="mask-type:luminance" maskUnits="userSpaceOnUse" x="-4" y="5" width="40" height="26">
<path d="M30.3704 29.8528C36.0818 24.4342 36.0818 15.6491 30.3704 10.2305C24.659 4.81202 15.3989 4.81202 9.68749 10.2305C3.97603 15.6491 3.97608 24.4342 9.68749 29.8528" stroke="white" stroke-width="2" stroke-linecap="round"/>
<path d="M18.4379 12.4398C22.8238 11.7064 27.0649 14.52 27.9104 18.7241C28.756 22.9282 25.8858 26.931 21.4999 27.6644C17.114 28.3978 -3.85564 24.0362 -3.85564 24.0362C-3.85564 24.0362 14.052 13.1733 18.4379 12.4398Z" fill="black"/>
<path d="M19.0689 15.4801C21.7032 15.0402 24.2503 16.7297 24.7577 19.2539C25.2651 21.778 23.5408 24.1807 20.9065 24.6206C18.272 25.0605 2.49775 22.9708 2.49775 22.9708C2.49775 22.9708 16.4345 15.92 19.0689 15.4801Z" fill="white"/>
</mask>
<g mask="url(#mask0_2001_1451)">
<path d="M39.5289 0H0.528931V37H39.5289V0Z" fill="black"/>
</g>
</g>
<defs>
<clipPath id="clip0_2001_1451">
<rect width="39" height="37" fill="white" transform="translate(0.528931)"/>
</clipPath>
</defs>
</svg>
