<svg width="39" height="37" viewBox="0 0 39 37" fill="none" xmlns="http://www.w3.org/2000/svg">
<g clip-path="url(#clip0_1311_319)">
<path d="M20 21C21.6569 21 23 19.6569 23 18C23 16.3431 21.6569 15 20 15C18.3431 15 17 16.3431 17 18C17 19.6569 18.3431 21 20 21Z" stroke="black" stroke-width="2" stroke-linecap="round" stroke-linejoin="round"/>
<path d="M27.4 21C27.2669 21.3016 27.2272 21.6362 27.286 21.9606C27.3448 22.285 27.4995 22.5843 27.73 22.82L27.79 22.88C27.976 23.0657 28.1235 23.2863 28.2241 23.5291C28.3248 23.7719 28.3766 24.0322 28.3766 24.295C28.3766 24.5578 28.3248 24.8181 28.2241 25.0609C28.1235 25.3037 27.976 25.5243 27.79 25.71C27.6043 25.896 27.3837 26.0435 27.1409 26.1441C26.8981 26.2448 26.6378 26.2966 26.375 26.2966C26.1122 26.2966 25.8519 26.2448 25.6091 26.1441C25.3663 26.0435 25.1457 25.896 24.96 25.71L24.9 25.65C24.6643 25.4195 24.365 25.2648 24.0406 25.206C23.7162 25.1472 23.3816 25.1869 23.08 25.32C22.7842 25.4468 22.532 25.6572 22.3543 25.9255C22.1766 26.1938 22.0813 26.5082 22.08 26.83V27C22.08 27.5304 21.8693 28.0391 21.4942 28.4142C21.1191 28.7893 20.6104 29 20.08 29C19.5496 29 19.0409 28.7893 18.6658 28.4142C18.2907 28.0391 18.08 27.5304 18.08 27V26.91C18.0723 26.579 17.9651 26.258 17.7725 25.9887C17.5799 25.7194 17.3107 25.5143 17 25.4C16.6984 25.2669 16.3638 25.2272 16.0394 25.286C15.715 25.3448 15.4157 25.4995 15.18 25.73L15.12 25.79C14.9343 25.976 14.7137 26.1235 14.4709 26.2241C14.2281 26.3248 13.9678 26.3766 13.705 26.3766C13.4422 26.3766 13.1819 26.3248 12.9391 26.2241C12.6963 26.1235 12.4757 25.976 12.29 25.79C12.104 25.6043 11.9565 25.3837 11.8559 25.1409C11.7552 24.8981 11.7034 24.6378 11.7034 24.375C11.7034 24.1122 11.7552 23.8519 11.8559 23.6091C11.9565 23.3663 12.104 23.1457 12.29 22.96L12.35 22.9C12.5805 22.6643 12.7352 22.365 12.794 22.0406C12.8528 21.7162 12.8131 21.3816 12.68 21.08C12.5532 20.7842 12.3428 20.532 12.0745 20.3543C11.8062 20.1766 11.4918 20.0813 11.17 20.08H11C10.4696 20.08 9.96086 19.8693 9.58579 19.4942C9.21071 19.1191 9 18.6104 9 18.08C9 17.5496 9.21071 17.0409 9.58579 16.6658C9.96086 16.2907 10.4696 16.08 11 16.08H11.09C11.421 16.0723 11.742 15.9651 12.0113 15.7725C12.2806 15.5799 12.4857 15.3107 12.6 15C12.7331 14.6984 12.7728 14.3638 12.714 14.0394C12.6552 13.715 12.5005 13.4157 12.27 13.18L12.21 13.12C12.024 12.9343 11.8765 12.7137 11.7759 12.4709C11.6752 12.2281 11.6234 11.9678 11.6234 11.705C11.6234 11.4422 11.6752 11.1819 11.7759 10.9391C11.8765 10.6963 12.024 10.4757 12.21 10.29C12.3957 10.104 12.6163 9.95653 12.8591 9.85588C13.1019 9.75523 13.3622 9.70343 13.625 9.70343C13.8878 9.70343 14.1481 9.75523 14.3909 9.85588C14.6337 9.95653 14.8543 10.104 15.04 10.29L15.1 10.35C15.3357 10.5805 15.635 10.7352 15.9594 10.794C16.2838 10.8528 16.6184 10.8131 16.92 10.68H17C17.2958 10.5532 17.548 10.3428 17.7257 10.0745C17.9034 9.80618 17.9987 9.49179 18 9.17V9C18 8.46957 18.2107 7.96086 18.5858 7.58579C18.9609 7.21071 19.4696 7 20 7C20.5304 7 21.0391 7.21071 21.4142 7.58579C21.7893 7.96086 22 8.46957 22 9V9.09C22.0013 9.41179 22.0966 9.72618 22.2743 9.99447C22.452 10.2628 22.7042 10.4732 23 10.6C23.3016 10.7331 23.6362 10.7728 23.9606 10.714C24.285 10.6552 24.5843 10.5005 24.82 10.27L24.88 10.21C25.0657 10.024 25.2863 9.87653 25.5291 9.77588C25.7719 9.67523 26.0322 9.62343 26.295 9.62343C26.5578 9.62343 26.8181 9.67523 27.0609 9.77588C27.3037 9.87653 27.5243 10.024 27.71 10.21C27.896 10.3957 28.0435 10.6163 28.1441 10.8591C28.2448 11.1019 28.2966 11.3622 28.2966 11.625C28.2966 11.8878 28.2448 12.1481 28.1441 12.3909C28.0435 12.6337 27.896 12.8543 27.71 13.04L27.65 13.1C27.4195 13.3357 27.2648 13.635 27.206 13.9594C27.1472 14.2838 27.1869 14.6184 27.32 14.92V15C27.4468 15.2958 27.6572 15.548 27.9255 15.7257C28.1938 15.9034 28.5082 15.9987 28.83 16H29C29.5304 16 30.0391 16.2107 30.4142 16.5858C30.7893 16.9609 31 17.4696 31 18C31 18.5304 30.7893 19.0391 30.4142 19.4142C30.0391 19.7893 29.5304 20 29 20H28.91C28.5882 20.0013 28.2738 20.0966 28.0055 20.2743C27.7372 20.452 27.5268 20.7042 27.4 21Z" stroke="black" stroke-width="2" stroke-linecap="round" stroke-linejoin="round"/>
</g>
<defs>
<clipPath id="clip0_1311_319">
<rect width="24" height="24" fill="white" transform="translate(8 6)"/>
</clipPath>
</defs>
</svg>
