<svg width="32" height="32" viewBox="0 0 32 32" fill="none" xmlns="http://www.w3.org/2000/svg">
<path d="M27 13H26V9C26 7.35 24.65 6 23 6H21.82H10.18H9C7.35 6 6 7.35 6 9V23C6 24.65 7.35 26 9 26H10.18H21.82H23C24.65 26 26 24.65 26 23V19H27C27.5527 19 28 18.5522 28 18V14C28 13.4478 27.5527 13 27 13ZM19.71 18.29C20.1 18.68 20.1 19.32 19.71 19.71C19.51 19.9 19.26 20 19 20C18.74 20 18.49 19.9 18.29 19.71L16 17.42L13.71 19.71C13.51 19.9 13.26 20 13 20C12.74 20 12.49 19.9 12.29 19.71C11.9 19.32 11.9 18.68 12.29 18.29L14.58 16L12.29 13.71C11.9 13.32 11.9 12.68 12.29 12.29C12.68 11.9 13.32 11.9 13.71 12.29L16 14.58L18.29 12.29C18.68 11.9 19.32 11.9 19.71 12.29C20.1 12.68 20.1 13.32 19.71 13.71L17.42 16L19.71 18.29Z" fill="#870000"/>
<path d="M19.3801 4H21.4201L20.9801 1.8C20.8901 1.34 20.4801 1 20.0001 1H12.0001C11.5201 1 11.1101 1.34 11.0201 1.8L10.5801 4H12.6201H19.3801Z" fill="#165794"/>
<path d="M12.6201 28H10.5801L11.0201 30.2C11.1101 30.66 11.5201 31 12.0001 31H20.0001C20.4801 31 20.8901 30.66 20.9801 30.2L21.4201 28H19.3801H12.6201Z" fill="#165794"/>
</svg>
