<svg width="32" height="32" viewBox="0 0 32 32" fill="none" xmlns="http://www.w3.org/2000/svg">
<path d="M27 13H26V9C26 7.35 24.65 6 23 6H21.82H10.18H9C7.35 6 6 7.35 6 9V23C6 24.65 7.35 26 9 26H10.18H21.82H23C24.65 26 26 24.65 26 23V19H27C27.5527 19 28 18.5527 28 18V14C28 13.4473 27.5527 13 27 13ZM20.8 13.4L16 19.8C15.81 20.05 15.53 20.2 15.22 20.2C15.2101 20.2 15.2101 20.2 15.2 20.2C14.9 20.2 14.61 20.06 14.42 19.8299L11.22 15.8299C10.87 15.39 10.94 14.76 11.38 14.4199C11.81 14.0699 12.44 14.1399 12.78 14.5799L15.17 17.57L19.2 12.2C19.53 11.76 20.16 11.67 20.6 12C21.04 12.33 21.13 12.96 20.8 13.4Z" fill="#135E00"/>
<path d="M19.3801 4H21.4201L20.9801 1.8C20.8901 1.34 20.4801 1 20.0001 1H12.0001C11.5201 1 11.1101 1.34 11.0201 1.8L10.5801 4H12.6201H19.3801Z" fill="#165794"/>
<path d="M12.6201 28H10.5801L11.0201 30.2C11.1101 30.66 11.5201 31 12.0001 31H20.0001C20.4801 31 20.8901 30.66 20.9801 30.2L21.4201 28H19.3801H12.6201Z" fill="#165794"/>
</svg>
