<svg width="220" height="220" viewBox="0 0 220 220" fill="none" xmlns="http://www.w3.org/2000/svg">
<g clip-path="url(#clip0_1218_11791)">
<path d="M110 217.25C169.233 217.25 217.25 169.233 217.25 110C217.25 50.7675 169.233 2.75 110 2.75C50.7675 2.75 2.75 50.7675 2.75 110C2.75 169.233 50.7675 217.25 110 217.25Z" fill="white" stroke="#222222" stroke-width="4"/>
<path fill-rule="evenodd" clip-rule="evenodd" d="M120.388 11.6234C120.793 12.2535 120.61 13.0924 119.98 13.497L113.038 17.9551C112.408 18.3597 111.57 18.177 111.165 17.5469C110.76 16.9167 110.943 16.0779 111.573 15.6732L118.515 11.2152C119.145 10.8105 119.984 10.9933 120.388 11.6234ZM136.07 13.5457C136.393 12.8704 137.203 12.5853 137.879 12.9089L145.321 16.4757C145.997 16.7993 146.282 17.6091 145.959 18.2845C145.635 18.9598 144.825 19.2449 144.15 18.9213L136.707 15.3545C136.032 15.0309 135.746 14.221 136.07 13.5457ZM97.1535 13.4126C97.7019 12.9026 98.5598 12.9338 99.0698 13.4822L104.683 19.5181C105.192 20.0665 105.161 20.9245 104.613 21.4344C104.064 21.9444 103.206 21.9132 102.696 21.3648L97.0838 15.3289C96.5739 14.7805 96.605 13.9225 97.1535 13.4126ZM84.0429 17.0334C84.4476 17.6636 84.2648 18.5024 83.6347 18.9071L76.6931 23.3651C76.063 23.7697 75.2241 23.587 74.8194 22.9569C74.4147 22.3268 74.5975 21.4879 75.2276 21.0832L82.1692 16.6252C82.7994 16.2206 83.6382 16.4033 84.0429 17.0334ZM66.0502 21.3919C66.6449 20.937 67.496 21.0503 67.951 21.645L72.957 28.189C73.4119 28.7838 73.2986 29.6349 72.7038 30.0899C72.1091 30.5448 71.2581 30.4315 70.803 29.8367L65.797 23.2927C65.3421 22.698 65.4554 21.847 66.0502 21.3919ZM80.9502 24.1672C81.6723 23.9687 82.4185 24.3933 82.617 25.1154L84.7976 33.051C84.996 33.7731 84.5715 34.5193 83.8494 34.7177C83.1273 34.9161 82.3811 34.4916 82.1826 33.7695L80.002 25.834C79.8036 25.1118 80.2281 24.3656 80.9502 24.1672ZM139.755 25.6685C139.902 26.4029 139.425 27.1169 138.69 27.2632L130.591 28.8766C129.857 29.0229 129.143 28.5462 128.996 27.8117C128.85 27.0773 129.327 26.3634 130.061 26.217L138.16 24.6036C138.894 24.4572 139.608 24.9341 139.755 25.6685ZM111.551 24.7302C112.238 25.0261 112.556 25.8236 112.261 26.5116L109.008 34.0743C108.712 34.7622 107.915 35.0801 107.227 34.7842C106.539 34.4884 106.221 33.6909 106.517 33.0029L109.77 25.4402C110.065 24.7523 110.862 24.4344 111.551 24.7302ZM119.607 25.5618C120.219 25.1279 121.065 25.2708 121.498 25.8812L126.272 32.5952C126.707 33.2056 126.564 34.0521 125.953 34.486C125.342 34.92 124.496 34.777 124.062 34.1667L119.289 27.4526C118.854 26.8423 118.997 25.9958 119.607 25.5618ZM153.289 26.6677C153.772 27.2397 153.701 28.0952 153.129 28.5785L146.831 33.901C146.259 34.3844 145.403 34.3126 144.92 33.7406C144.437 33.1686 144.509 32.3131 145.08 31.8297L151.378 26.5073C151.951 26.0239 152.806 26.0957 153.289 26.6677ZM89.7811 27.6629C89.945 26.9322 90.6703 26.4727 91.4011 26.6366L99.4584 28.4441C100.189 28.608 100.649 29.3333 100.485 30.064C100.321 30.7947 99.5955 31.2541 98.8647 31.0902L90.8074 29.2827C90.0767 29.1188 89.6172 28.3936 89.7811 27.6629ZM59.0586 27.4143C59.6544 27.8681 59.7694 28.7188 59.3156 29.3146L54.3232 35.8688C53.8694 36.4645 53.0187 36.5796 52.423 36.1258C51.8272 35.6721 51.7121 34.8213 52.1659 34.2256L57.1583 27.6713C57.6121 27.0755 58.4628 26.9605 59.0586 27.4143ZM159.135 28.6718C159.47 28.0022 160.286 27.7312 160.955 28.0665L168.334 31.7621C169.004 32.0975 169.275 32.9121 168.939 33.5817C168.604 34.2513 167.789 34.5223 167.119 34.187L159.74 30.4913C159.071 30.156 158.8 29.3414 159.135 28.6718ZM32.777 52.0075C33.4455 52.3449 33.714 53.1604 33.3766 53.829L29.6668 61.1798C29.3294 61.8484 28.5139 62.1168 27.8454 61.7794C27.1768 61.442 26.9083 60.6265 27.2457 59.9579L30.9555 52.6071C31.2929 51.9386 32.1084 51.6701 32.777 52.0075ZM184.671 52.4004C185.123 51.803 185.973 51.6848 186.571 52.1364L193.15 57.1096C193.748 57.5612 193.866 58.4115 193.415 59.009C192.963 59.6064 192.112 59.7246 191.515 59.273L184.936 54.2997C184.338 53.8482 184.22 52.9978 184.671 52.4004ZM199.46 65.9755C199.913 66.5719 199.797 67.4225 199.2 67.8753L192.631 72.8622C192.034 73.315 191.184 73.1985 190.731 72.602C190.278 72.0056 190.394 71.155 190.991 70.7021L197.56 65.7153C198.157 65.2625 199.007 65.379 199.46 65.9755ZM25.8344 67.5996C26.4046 67.114 27.2604 67.1826 27.7459 67.7527L33.0889 74.0267C33.5743 74.5969 33.5058 75.4527 32.9356 75.9382C32.3655 76.4238 31.5097 76.3552 31.0242 75.7851L25.6812 69.511C25.1957 68.9408 25.2643 68.0851 25.8344 67.5996ZM197.889 74.7086C198.518 74.3017 199.357 74.4815 199.764 75.1102L204.239 82.0253C204.646 82.6539 204.466 83.4935 203.838 83.9004C203.209 84.3072 202.37 84.1273 201.962 83.4987L197.487 76.5836C197.08 75.9549 197.26 75.1154 197.889 74.7086ZM17.421 74.9004C18.0953 75.226 18.378 76.0367 18.0523 76.711L14.4719 84.1252C14.1462 84.7995 13.3356 85.0822 12.6612 84.7566C11.9868 84.4309 11.7042 83.6203 12.0298 82.9459L15.6103 75.5317C15.9359 74.8573 16.7466 74.5746 17.421 74.9004ZM190.018 78.3338C190.762 78.2511 191.433 78.7875 191.516 79.5318L192.423 87.7095C192.506 88.4538 191.969 89.1242 191.225 89.2068C190.481 89.2894 189.81 88.753 189.727 88.0087L188.82 79.831C188.737 79.0867 189.274 78.4164 190.018 78.3338ZM20.8646 84.2892C21.1586 83.6004 21.9553 83.2803 22.644 83.5743L30.2358 86.8142C30.9246 87.1081 31.2446 87.9048 30.9507 88.5936C30.6567 89.2824 29.86 89.6024 29.1713 89.3085L21.5795 86.0685C20.8907 85.7745 20.5707 84.9779 20.8646 84.2892ZM196.836 92.4386C197.178 93.1045 196.917 93.922 196.251 94.2646L188.912 98.0393C188.246 98.3818 187.429 98.1196 187.086 97.4537C186.743 96.7877 187.006 95.9703 187.672 95.6277L195.01 91.8529C195.676 91.5104 196.494 91.7726 196.836 92.4386ZM36.9208 95.1519C37.3089 95.7924 37.1042 96.6262 36.4638 97.0143L29.4073 101.29C28.7669 101.678 27.9331 101.473 27.5451 100.833C27.157 100.192 27.3615 99.3584 28.0021 98.9703L35.0584 94.6949C35.699 94.3068 36.5327 94.5114 36.9208 95.1519ZM207.471 96.9592C207.978 97.5095 207.944 98.3674 207.393 98.8753L201.335 104.466C200.785 104.974 199.926 104.939 199.419 104.389C198.911 103.839 198.945 102.981 199.496 102.473L205.555 96.8822C206.105 96.3744 206.963 96.4088 207.471 96.9592ZM11.6194 100.374C12.2481 99.967 13.0876 100.147 13.4945 100.776L17.9696 107.691C18.3765 108.32 18.1967 109.158 17.568 109.565C16.9393 109.972 16.0998 109.793 15.6929 109.164L11.2177 102.249C10.8109 101.62 10.9907 100.781 11.6194 100.374ZM185.263 105.486C185.558 104.798 186.354 104.478 187.043 104.772L194.634 108.012C195.324 108.305 195.643 109.102 195.35 109.791C195.055 110.48 194.259 110.8 193.57 110.506L185.978 107.266C185.289 106.971 184.969 106.175 185.263 105.486ZM26.9222 110.689C27.2161 110.001 28.0128 109.68 28.7016 109.975L36.2933 113.215C36.9821 113.508 37.3021 114.305 37.0082 114.994C36.7143 115.683 35.9176 116.003 35.2288 115.709L27.637 112.469C26.9483 112.175 26.6282 111.378 26.9222 110.689ZM202.432 110.914C203.061 110.508 203.901 110.688 204.307 111.317L208.782 118.231C209.189 118.861 209.009 119.699 208.381 120.106C207.752 120.513 206.912 120.334 206.505 119.705L202.03 112.79C201.624 112.161 201.804 111.321 202.432 110.914ZM20.5813 116.091C21.0892 116.641 21.0547 117.499 20.5044 118.007L14.4453 123.598C13.8949 124.106 13.0371 124.071 12.5292 123.522C12.0214 122.971 12.0558 122.113 12.6062 121.605L18.6653 116.014C19.2156 115.506 20.0734 115.54 20.5813 116.091ZM200.027 119.648C200.415 120.288 200.211 121.122 199.57 121.51L192.514 125.785C191.873 126.174 191.04 125.969 190.651 125.329C190.263 124.688 190.468 123.855 191.108 123.466L198.165 119.191C198.805 118.803 199.639 119.007 200.027 119.648ZM29.2453 120.199C29.9758 120.363 30.4341 121.09 30.269 121.82L28.4545 129.847C28.2894 130.577 27.5634 131.035 26.833 130.87C26.1025 130.705 25.6443 129.979 25.8093 129.248L27.6238 121.222C27.789 120.491 28.5149 120.033 29.2453 120.199ZM186.778 133.395C187.072 132.707 187.868 132.387 188.557 132.681L196.149 135.92C196.837 136.214 197.158 137.011 196.863 137.7C196.57 138.389 195.774 138.708 195.084 138.415L187.493 135.175C186.804 134.88 186.484 134.084 186.778 133.395ZM207.339 135.724C208.014 136.05 208.296 136.86 207.97 137.535L204.389 144.949C204.064 145.623 203.253 145.906 202.579 145.58C201.904 145.255 201.622 144.444 201.948 143.769L205.528 136.355C205.854 135.681 206.665 135.398 207.339 135.724ZM33.9117 136.776C34.1087 137.499 33.6827 138.244 32.9602 138.441L24.9941 140.613C24.2717 140.81 23.5262 140.384 23.3292 139.661C23.1322 138.939 23.5581 138.193 24.2807 137.996L32.2467 135.825C32.9692 135.627 33.7146 136.053 33.9117 136.776ZM16.1626 136.58C16.7913 136.173 17.6308 136.353 18.0376 136.982L22.5128 143.897C22.9196 144.526 22.7398 145.365 22.1111 145.771C21.4824 146.179 20.643 145.999 20.2361 145.37L15.7609 138.455C15.354 137.826 15.5339 136.987 16.1626 136.58ZM187.064 144.542C187.635 144.057 188.49 144.125 188.976 144.695L194.319 150.969C194.804 151.539 194.736 152.395 194.165 152.881C193.596 153.367 192.74 153.298 192.254 152.728L186.911 146.454C186.425 145.883 186.495 145.028 187.064 144.542ZM29.2692 147.878C29.722 148.475 29.6055 149.325 29.0091 149.778L22.44 154.765C21.8435 155.218 20.9929 155.102 20.5401 154.505C20.0873 153.908 20.2038 153.058 20.8002 152.605L27.3694 147.618C27.9658 147.166 28.8164 147.282 29.2692 147.878ZM192.155 158.701C192.823 159.038 193.092 159.854 192.754 160.522L189.044 167.874C188.707 168.541 187.891 168.81 187.223 168.473C186.555 168.135 186.286 167.32 186.623 166.651L190.333 159.3C190.671 158.632 191.486 158.363 192.155 158.701ZM26.5856 161.471C27.0371 160.874 27.8875 160.755 28.4849 161.207L35.0643 166.181C35.6617 166.632 35.78 167.482 35.3283 168.08C34.8768 168.677 34.0265 168.795 33.4291 168.344L26.8496 163.371C26.2522 162.919 26.134 162.069 26.5856 161.471ZM115.113 183.975C115.8 184.27 116.119 185.067 115.823 185.756L112.57 193.318C112.274 194.006 111.477 194.324 110.789 194.029C110.101 193.732 109.783 192.935 110.079 192.246L113.332 184.684C113.627 183.996 114.425 183.678 115.113 183.975ZM168.402 185.649C168.998 186.103 169.113 186.955 168.659 187.55L163.667 194.104C163.213 194.7 162.362 194.815 161.766 194.361C161.171 193.908 161.056 193.056 161.51 192.461L166.502 185.907C166.956 185.311 167.807 185.196 168.402 185.649ZM136.976 187.058C137.698 186.859 138.444 187.284 138.642 188.006L140.823 195.942C141.021 196.664 140.597 197.41 139.875 197.609C139.153 197.807 138.407 197.382 138.209 196.66L136.028 188.725C135.829 188.002 136.254 187.256 136.976 187.058ZM51.886 188.194C52.2214 187.524 53.036 187.253 53.7055 187.589L61.0846 191.284C61.7542 191.619 62.0252 192.435 61.6898 193.104C61.3545 193.774 60.5399 194.045 59.8703 193.709L52.4912 190.014C51.8216 189.678 51.5507 188.863 51.886 188.194ZM75.9052 188.035C76.3886 188.607 76.3168 189.463 75.7447 189.946L69.4466 195.269C68.8747 195.752 68.0191 195.68 67.5357 195.108C67.0524 194.536 67.1242 193.68 67.6962 193.197L73.9943 187.874C74.5663 187.391 75.4218 187.463 75.9052 188.035ZM105.721 190.067C105.849 190.805 105.353 191.506 104.615 191.633L96.4771 193.035C95.7391 193.162 95.0379 192.667 94.9108 191.929C94.7836 191.191 95.2789 190.489 96.0169 190.362L104.155 188.961C104.893 188.833 105.594 189.329 105.721 190.067ZM88.6111 190.008C89.2991 190.304 89.6169 191.102 89.3211 191.79L86.0686 199.353C85.7728 200.041 84.9752 200.358 84.2874 200.062C83.5994 199.767 83.2815 198.969 83.5774 198.281L86.8298 190.718C87.1256 190.031 87.9232 189.713 88.6111 190.008ZM120.341 191.712C120.505 190.981 121.23 190.521 121.96 190.685L130.018 192.493C130.749 192.657 131.208 193.382 131.044 194.113C130.88 194.843 130.155 195.303 129.424 195.139L121.367 193.332C120.636 193.167 120.176 192.443 120.341 191.712ZM148.121 191.686C148.716 191.23 149.568 191.344 150.022 191.939L155.028 198.483C155.483 199.077 155.37 199.929 154.775 200.383C154.18 200.839 153.33 200.725 152.874 200.13L147.868 193.587C147.413 192.992 147.526 192.14 148.121 191.686ZM146.005 198.818C146.41 199.449 146.228 200.288 145.598 200.692L138.656 205.151C138.026 205.555 137.187 205.372 136.782 204.742C136.378 204.112 136.561 203.273 137.191 202.868L144.132 198.411C144.762 198.006 145.601 198.188 146.005 198.818ZM116.213 200.341C116.761 199.831 117.618 199.862 118.129 200.41L123.741 206.447C124.251 206.995 124.22 207.853 123.672 208.363C123.124 208.873 122.265 208.842 121.756 208.293L116.142 202.257C115.633 201.709 115.664 200.851 116.213 200.341ZM100.064 201.76C100.376 201.079 101.18 200.78 101.861 201.092L109.365 204.529C110.046 204.841 110.346 205.646 110.033 206.326C109.722 207.007 108.917 207.306 108.236 206.995L100.732 203.558C100.051 203.246 99.752 202.441 100.064 201.76ZM74.8668 203.491C75.1904 202.816 76.0002 202.531 76.6756 202.855L84.1182 206.421C84.7936 206.745 85.0787 207.555 84.7551 208.23C84.4315 208.905 83.6216 209.19 82.9463 208.867L75.5036 205.3C74.8283 204.976 74.5431 204.166 74.8668 203.491Z" fill="#222222"/>
</g>
<defs>
<clipPath id="clip0_1218_11791">
<rect width="220" height="220" fill="white"/>
</clipPath>
</defs>
</svg>
